<?xml version="1.0" encoding="UTF-8" standalone="no"?>
<svg
   version="1.1"
   width="752.11542"
   height="173.0858"
   id="svg14"
   viewBox="0 0 752.11541 173.0858"
   sodipodi:docname="f7c6c6aa837d2dcf0ed0b908a846aed8.cdr"
   xmlns:inkscape="http://www.inkscape.org/namespaces/inkscape"
   xmlns:sodipodi="http://sodipodi.sourceforge.net/DTD/sodipodi-0.dtd"
   xmlns="http://www.w3.org/2000/svg"
   xmlns:svg="http://www.w3.org/2000/svg">
  <defs
     id="defs18" />
  <sodipodi:namedview
     id="namedview16"
     pagecolor="#ffffff"
     bordercolor="#666666"
     borderopacity="1.0"
     inkscape:pageshadow="2"
     inkscape:pageopacity="0.0"
     inkscape:pagecheckerboard="0" />
  <g
     id="Layer1000"
     transform="translate(-14.1642,-14.2571)">
    <path
       d="M 14.1642,14.2571 H 766.2796 V 187.3429 H 14.1642 Z"
       style="fill:#e30016;fill-rule:evenodd"
       id="path2" />
    <g
       id="Layer1001">
      <path
         d="m 171.4214,43.0371 10.5671,-19.2075 21.3446,8.9249 -5.5196,21.1092 -0.0156,-0.0066 c 4.838,3.5165 9.1343,7.7346 12.7363,12.5051 l -0.005,-0.0109 20.9927,-6.3165 8.9919,21.3168 -18.6834,11.1861 c 0.5558,3.2896 0.8497,6.6684 0.8497,10.1165 0,2.7051 -0.1812,5.3673 -0.5265,7.9776 l 0.005,-0.0128 19.3919,10.2246 -8.5446,21.4999 -21.2026,-5.1437 c -3.4415,4.9125 -7.5945,9.29 -12.3131,12.9783 l 0.007,-0.003 6.6717,20.8827 -21.1616,9.3518 -11.5016,-18.4927 c -3.6029,0.6718 -7.3171,1.0265 -11.1149,1.0265 v -18.723 c 22.9562,0 41.566,-18.6097 41.566,-41.5659 0,-22.9561 -18.6098,-41.5659 -41.566,-41.5659 v -18.723 c 3.0712,0 6.0882,0.2307 9.0358,0.6742 z"
         style="fill:#ffffff;fill-rule:evenodd"
         id="path4" />
      <path
         d="m 112.5988,97.5365 c 0.5939,-5.8485 2.1951,-11.3993 4.6266,-16.4764 h 13.702 v 16.4764 z m 11.1634,-26.7119 c 2.1437,-2.599 4.5459,-4.9771 7.1652,-7.0972 v 7.0972 z m 17.4006,-13.5114 c 4.7177,-2.2135 9.8377,-3.7118 15.2201,-4.3558 V 42.6611 c -30.4761,3.0151 -54.2805,28.724 -54.2805,59.9931 0,31.2692 23.8044,56.9781 54.2805,59.9931 V 152.351 c -5.5064,-0.6586 -10.7374,-2.2135 -15.5456,-4.5105 l 0.3255,0.1486 v -13.5053 h 15.2201 v -10.2354 h -15.2201 v -16.4765 h 15.2201 V 97.5365 H 141.1628 V 81.0601 h 15.2201 V 70.8246 h -15.2201 z m -10.2354,84.2679 c -2.6198,-2.1197 -5.021,-4.4983 -7.1652,-7.0973 h 7.1652 z m -13.702,-17.3327 c -2.432,-5.0767 -4.0322,-10.6284 -4.6266,-16.4765 h 18.3286 v 16.4765 z"
         style="fill:#ffffff;fill-rule:evenodd"
         id="path6" />
      <path
         d="m 245.4394,101.4851 c 1.8489,2.3537 4.0798,4.355 6.6928,6.0048 2.613,1.6511 5.5319,2.9189 8.7862,3.7899 3.2554,0.871 6.7701,1.2997 10.544,1.3144 4.0343,0 7.7321,-0.4582 11.0944,-1.3599 3.3771,-0.9165 6.3562,-2.2616 8.9544,-4.065 2.613,-1.7727 4.6449,-4.1105 6.0822,-6.9827 1.4509,-2.8734 2.1843,-6.2039 2.2002,-9.979 0.0148,-2.5515 -0.5356,-4.8291 -1.6351,-6.8303 -1.0848,-2.0024 -2.7813,-3.7592 -5.0577,-5.2567 -2.2923,-1.5123 -5.2271,-2.7961 -8.7873,-3.8513 l -7.6251,-2.2309 c -1.543,-0.4582 -2.8109,-0.9165 -3.8195,-1.3747 -1.0085,-0.4742 -1.7419,-0.9324 -2.2161,-1.4054 -0.4742,-0.4742 -0.8255,-1.0245 -1.0541,-1.6351 -0.2296,-0.6266 -0.3365,-1.3145 -0.3365,-2.0786 0.0147,-1.4827 0.4127,-2.6744 1.1768,-3.6068 0.7789,-0.9312 1.8637,-1.6192 3.2702,-2.0626 1.3907,-0.4276 3.0406,-0.6413 4.9054,-0.6413 1.3747,0 2.7653,0.1376 4.1707,0.3968 1.4066,0.2593 2.8427,0.6572 4.2947,1.161 1.4509,0.5196 2.7506,1.1461 3.9116,1.8795 1.1461,0.7334 2.1547,1.5749 3.0257,2.5061 l 9.2751,-10.7419 c -5.516,-5.0122 -13.1264,-7.5183 -22.829,-7.5183 -2.8574,0 -5.5932,0.3059 -8.221,0.8858 -2.6289,0.5958 -5.0588,1.4828 -7.2738,2.6437 -2.2309,1.1621 -4.1719,2.5982 -5.8377,4.3095 -1.6499,1.7113 -2.9496,3.6977 -3.8661,5.9446 -0.9164,2.2309 -1.3906,4.737 -1.4054,7.4876 0,3.957 1.1303,7.3193 3.3771,10.0847 2.2617,2.7664 5.6228,4.7984 10.1006,6.0674 l 7.6093,2.1081 c 1.8181,0.5196 3.3316,1.0245 4.5539,1.5441 1.2224,0.5185 2.1389,1.0234 2.7506,1.543 0.5958,0.5345 1.0541,1.1769 1.3452,1.9103 0.3047,0.7482 0.4423,1.5885 0.4423,2.5209 0,2.124 -0.8551,3.7284 -2.5516,4.7984 -1.6965,1.07 -4.2333,1.6044 -7.6093,1.6044 -2.3389,0 -4.6006,-0.3366 -6.8008,-1.0233 -2.2002,-0.6732 -4.2629,-1.6818 -6.1731,-2.9951 -1.9103,-1.3144 -3.5761,-2.9348 -5.027,-4.845 z m 99.7073,-4.5074 h 7.7935 l 2.5061,-11.5526 h -7.931 l 7.4421,-34.5657 h -13.4788 l -35.7722,36.5829 -2.1082,9.5354 h 27.8105 l -2.9644,14.5011 h 13.7074 z M 319.7651,85.4251 c 0.5196,-0.581 0.9926,-1.1007 1.4213,-1.5282 0.4276,-0.4275 0.871,-0.9017 1.344,-1.4213 4.9054,-5.1805 8.6952,-9.1841 11.3537,-12.0257 2.6596,-2.8574 4.1878,-4.5392 4.5846,-5.0736 -1.452,6.2653 -2.5516,11.0637 -3.3157,14.4101 -0.78,3.3316 -1.1916,5.2112 -1.2837,5.6387 z M 403.5352,48.1247 H 389.431 l -13.3856,63.3541 h 14.0122 z m 17.1755,38.6911 c 0.2296,-1.2224 0.5048,-2.2776 0.7948,-3.1634 0.2899,-0.9017 0.6572,-1.6965 1.0699,-2.414 0.4117,-0.7038 0.9313,-1.4213 1.5431,-2.124 0.9164,-0.9631 2.0171,-1.6817 3.2849,-2.1707 1.269,-0.4889 2.7051,-0.7334 4.3243,-0.7334 1.9569,0 3.4385,0.5197 4.4471,1.543 1.0086,1.0245 1.5134,2.522 1.5134,4.4937 0,0.7937 -0.0466,1.6044 -0.1376,2.4447 -0.0921,0.8403 -0.2149,1.6954 -0.3979,2.5664 l -5.1498,24.2207 h 13.4777 L 451.15,84.5382 c 0.3206,-1.4816 0.5503,-2.9336 0.7186,-4.3697 0.1524,-1.4214 0.2286,-2.812 0.2286,-4.1867 0,-1.85 -0.3048,-3.484 -0.9165,-4.9053 -0.6106,-1.4066 -1.5282,-2.5983 -2.7506,-3.5613 -1.2371,-0.962 -2.6277,-1.6806 -4.1867,-2.1696 -1.5589,-0.4889 -3.2861,-0.7334 -5.1645,-0.7334 -3.4237,0 -6.4188,0.6118 -8.9704,1.8489 -2.5516,1.2383 -4.6608,3.1019 -6.3414,5.5773 l 1.2985,-6.3107 H 411.771 l -9.6264,45.7511 h 13.3856 z m 93.5182,-38.6763 h -13.4618 l -4.7984,22.1569 c -0.4889,-1.1461 -1.2837,-2.1547 -2.3844,-3.0098 -1.0848,-0.871 -2.4447,-1.543 -4.0332,-2.0172 -1.6056,-0.4889 -3.4078,-0.7334 -5.3943,-0.7493 -3.0257,0 -5.8377,0.4435 -8.4507,1.3452 -2.5982,0.9017 -5.0122,2.2616 -7.2283,4.065 -7.1658,5.8673 -10.7419,14.2418 -10.7419,25.1212 0,2.7051 0.3821,5.1351 1.1302,7.2739 0.7642,2.1547 1.8955,4.0036 3.3931,5.5773 1.4975,1.5589 3.2235,2.7358 5.1804,3.5147 1.9558,0.78 4.1253,1.1768 6.5552,1.1768 3.285,0 6.1732,-0.581 8.6645,-1.7419 2.4902,-1.1769 4.5835,-2.9189 6.28,-5.2419 l -1.2075,5.8684 h 13.0353 z m -21.4383,36.0326 c 0,2.124 -0.2752,4.156 -0.8414,6.0662 -0.5652,1.9103 -1.4202,3.7137 -2.5664,5.3943 -1.1769,1.8034 -2.5675,3.1633 -4.1719,4.065 -1.5896,0.9017 -3.4078,1.344 -5.4397,1.344 -1.6966,0 -3.1327,-0.3661 -4.2948,-1.0688 -1.1757,-0.7039 -2.0626,-1.7124 -2.6732,-3.011 -0.6117,-1.2985 -0.9176,-2.8426 -0.9176,-4.6449 0,-1.6965 0.1842,-3.3464 0.5355,-4.936 0.3662,-1.6044 0.9017,-3.0872 1.6044,-4.4619 0.7028,-1.3758 1.5737,-2.5823 2.5971,-3.6215 1.1007,-1.1007 2.3537,-1.9251 3.7592,-2.4914 1.3906,-0.5503 2.9347,-0.8243 4.6153,-0.8243 2.4447,0 4.3391,0.6868 5.7149,2.0626 1.36,1.3747 2.0627,3.4226 2.0786,6.1277 z m 71.4989,-18.4444 h -13.4777 l -5.1498,24.663 c -0.2285,1.2076 -0.5037,2.2469 -0.7948,3.1178 -0.2899,0.8858 -0.6561,1.6806 -1.0995,2.3993 -0.4276,0.7175 -0.9631,1.4213 -1.5897,2.1081 -0.8857,0.9631 -1.9409,1.6817 -3.1928,2.1707 -1.2531,0.4889 -2.7051,0.7334 -4.3402,0.7334 -1.9558,-0.016 -3.4385,-0.5197 -4.4778,-1.5442 -1.0393,-1.0233 -1.5578,-2.4902 -1.5578,-4.4152 0,-0.5811 0.0603,-1.2838 0.1672,-2.1093 0.1068,-0.8403 0.2751,-1.8034 0.5048,-2.9029 l 5.0122,-24.2207 h -13.3867 l -5.6842,26.8644 c -0.29,1.4509 -0.5196,2.8881 -0.672,4.2935 -0.1535,1.4214 -0.2297,2.7961 -0.2297,4.1719 0,1.8796 0.3206,3.5295 0.9324,4.9508 0.6265,1.4362 1.5589,2.6437 2.7813,3.6364 1.2371,0.9779 2.6277,1.7113 4.1719,2.2161 1.5578,0.489 3.2702,0.7334 5.1498,0.7334 3.468,0 6.479,-0.6117 9.0306,-1.8488 2.5515,-1.2383 4.6449,-3.1019 6.28,-5.5773 l -1.3906,6.3107 h 13.3867 z m -0.5958,38.1407 c 2.1081,2.6437 5.1031,4.737 8.9999,6.3119 1.925,0.8095 3.9581,1.4054 6.1129,1.8022 2.1388,0.4128 4.3856,0.6117 6.7382,0.6117 2.9496,0 5.6694,-0.2899 8.1608,-0.9016 2.4901,-0.5959 4.7518,-1.5123 6.7837,-2.7654 2.0638,-1.253 3.6523,-2.9348 4.7837,-5.0736 1.1154,-2.124 1.6953,-4.6301 1.7113,-7.5024 0,-3.2099 -0.9324,-5.8229 -2.7961,-7.8401 -1.8796,-2.016 -4.7075,-3.5442 -8.4814,-4.5994 l -5.3328,-1.5737 c -1.3145,-0.3969 -2.3993,-0.7789 -3.2555,-1.1155 -0.8551,-0.3366 -1.4975,-0.6572 -1.8943,-0.9472 -0.4276,-0.2604 -0.7334,-0.5651 -0.9472,-0.9017 -0.199,-0.3513 -0.3059,-0.7334 -0.3059,-1.1461 0,-1.0996 0.4435,-1.9251 1.3452,-2.4902 0.8857,-0.5503 2.215,-0.8255 3.9877,-0.8255 1.0245,0 2.1092,0.1217 3.2247,0.3661 1.1302,0.2297 2.3071,0.597 3.5295,1.07 1.2382,0.4582 2.3378,1.0086 3.3009,1.6351 0.9631,0.6265 1.7874,1.3145 2.4754,2.0786 l 7.8844,-9.0011 c -2.215,-2.1695 -4.8746,-3.8046 -7.9606,-4.9053 -3.0712,-1.0847 -6.5859,-1.6351 -10.5293,-1.6351 -2.1388,0 -4.2481,0.1842 -6.3107,0.5504 -2.0479,0.3672 -3.9877,0.9471 -5.7763,1.7272 -1.8023,0.7948 -3.3919,1.8034 -4.7677,3.0405 -1.3748,1.2223 -2.4447,2.7051 -3.2236,4.4311 -0.7801,1.7272 -1.1769,3.7137 -1.1917,5.9606 0,2.1536 0.3969,3.9877 1.1917,5.5159 0.7948,1.5282 1.9864,2.8119 3.576,3.866 1.5738,1.0541 3.5602,1.9558 5.9287,2.7051 l 5.1498,1.6658 c 1.543,0.4582 2.8108,0.8858 3.8046,1.2678 1.0086,0.3821 1.7273,0.7187 2.2003,1.0086 0.4434,0.29 0.78,0.6413 1.0086,1.0393 0.2296,0.3968 0.3365,0.8403 0.3365,1.3292 0,1.07 -0.4741,1.8796 -1.4065,2.414 -0.9313,0.5356 -2.3378,0.8108 -4.1867,0.8108 -5.9139,0 -10.8488,-2.1855 -14.7762,-6.5871 z m 73.8219,-3.758 c -0.581,0.2444 -1.2531,0.4275 -2.0172,0.5492 -0.7493,0.1069 -1.5896,0.1683 -2.5061,0.1683 -1.2382,-0.0148 -2.2161,-0.3366 -2.904,-0.9927 -0.6868,-0.6424 -1.0234,-1.5282 -1.0382,-2.6289 0,-0.6106 0.0455,-1.2838 0.1376,-2.0479 0.091,-0.7482 0.2445,-1.5737 0.4423,-2.4754 l 3.4544,-16.4727 h 9.0761 l 2.2003,-10.4826 h -9.1375 L 638.05,52.4331 h -13.0342 l -2.995,13.2946 h -6.6326 l -2.1843,10.4826 h 6.4017 l -3.4533,16.6569 c -0.3968,1.833 -0.7027,3.4988 -0.9017,5.027 -0.1978,1.5123 -0.3047,2.8723 -0.3047,4.0491 0.0148,3.5306 1.0996,6.1891 3.2702,8.0073 2.1696,1.8181 5.3329,2.7198 9.4889,2.7358 2.2923,0 4.3709,-0.1376 6.28,-0.4128 1.8955,-0.2752 3.592,-0.6879 5.0895,-1.2383 z m 24.1741,-10.2541 c 0.581,-2.6892 1.2075,-4.8587 1.8796,-6.4938 0.672,-1.651 1.5134,-2.9189 2.5061,-3.8058 2.414,-2.2457 5.2259,-3.3612 8.4507,-3.3612 0.8709,0 1.7419,0.0762 2.5822,0.2286 0.8562,0.1535 1.6965,0.3673 2.5209,0.6572 l 3.9434,-11.7198 c -0.8255,-0.3365 -1.6658,-0.581 -2.522,-0.7641 -0.8403,-0.1683 -1.7113,-0.2604 -2.5823,-0.2604 -5.9139,0 -10.3451,2.812 -13.2946,8.4507 l 1.4372,-7.06 h -13.3867 l -9.6264,45.7511 h 13.4777 z m 15.0218,37.4846 c 0.4275,0.1364 0.9472,0.2592 1.5737,0.3968 0.6265,0.1217 1.3599,0.2445 2.1854,0.3662 0.8563,0.108 1.6204,0.199 2.3231,0.2604 0.6879,0.0614 1.2837,0.0921 1.8034,0.0921 2.2309,0 4.1105,-0.0921 5.6387,-0.2752 0.763,-0.1069 1.543,-0.2604 2.3378,-0.4594 0.8096,-0.2138 1.6192,-0.4582 2.4447,-0.7482 1.6658,-0.6117 3.2543,-1.5589 4.7518,-2.8267 1.5135,-1.269 3.011,-2.9189 4.5233,-4.9508 0.4434,-0.6118 0.9631,-1.36 1.5589,-2.2469 0.581,-0.871 1.161,-1.7567 1.7113,-2.6277 0.5651,-0.871 1.0245,-1.6204 1.3906,-2.2469 0.29,-0.473 0.6118,-1.0086 0.9779,-1.6351 0.3514,-0.6265 0.7641,-1.3144 1.2076,-2.0786 0.4275,-0.7629 0.7789,-1.3599 1.0233,-1.8022 0.2604,-0.4435 0.4287,-0.7186 0.5049,-0.8403 l 23.4555,-39.9748 h -15.1276 c -8.3279,15.0821 -13.6153,24.8916 -15.8462,29.4148 -0.1228,-0.9164 -0.5503,-3.8353 -1.3145,-8.7247 -0.7481,-4.9053 -1.8181,-11.7971 -3.2088,-20.6901 H 686.247 l 8.9089,43.2905 -1.2076,2.0171 c -0.473,0.8244 -0.9472,1.5578 -1.4361,2.1844 -0.5048,0.6424 -1.0086,1.1927 -1.5134,1.6658 -1.4816,1.162 -3.4988,1.742 -6.0504,1.742 -0.6424,0 -1.3906,-0.0603 -2.2013,-0.1979 -0.8244,-0.1228 -1.742,-0.3218 -2.7199,-0.5663 z"
         style="fill:#ffffff;fill-rule:evenodd"
         id="path8" />
      <path
         d="m 247.087,142.2047 c 0.2559,0.3706 0.5697,0.7049 0.9347,0.9972 0.3673,0.2945 0.7846,0.5492 1.2576,0.7675 0.4696,0.2217 0.9665,0.3877 1.4896,0.4969 0.523,0.1092 1.07,0.1626 1.6419,0.1626 0.8346,0 1.5999,-0.0898 2.2946,-0.2718 0.6959,-0.1819 1.311,-0.4571 1.8443,-0.8243 0.5367,-0.3673 0.954,-0.8483 1.2485,-1.4407 0.2979,-0.5958 0.4469,-1.2815 0.4503,-2.0627 0,-1.5987 -1.0859,-2.705 -3.2577,-3.3168 l -1.7647,-0.4935 c -0.3809,-0.1057 -0.6959,-0.2217 -0.954,-0.3445 -0.2547,-0.1228 -0.4469,-0.2513 -0.5788,-0.3934 -0.133,-0.1399 -0.2285,-0.2979 -0.2979,-0.4742 -0.0671,-0.1717 -0.1001,-0.3638 -0.1001,-0.5719 0,-0.3719 0.066,-0.6891 0.1956,-0.9574 0.1296,-0.265 0.3241,-0.4833 0.5799,-0.655 0.2581,-0.1626 0.556,-0.2888 0.8994,-0.3718 0.3412,-0.0819 0.7255,-0.1217 1.1462,-0.1217 0.4696,0 0.9233,0.0557 1.3577,0.1683 0.4366,0.1126 0.8369,0.2752 1.2075,0.4867 0.3684,0.2126 0.6891,0.4707 0.9643,0.772 l 1.4759,-1.6521 c -0.5492,-0.5765 -1.2144,-1.0063 -1.999,-1.2951 -0.7846,-0.2877 -1.6885,-0.4299 -2.7051,-0.4299 -0.5105,0 -0.9938,0.0398 -1.4531,0.1217 -0.4606,0.083 -0.8938,0.2092 -1.302,0.3718 -0.4071,0.1649 -0.7743,0.3741 -1.1018,0.6254 -0.3309,0.2547 -0.6197,0.5492 -0.8642,0.8869 -0.249,0.3446 -0.4343,0.7221 -0.5594,1.1291 -0.1262,0.4071 -0.1888,0.8472 -0.1888,1.3179 0,0.5333 0.1024,1.0131 0.3082,1.4464 0.2012,0.4343 0.5128,0.8084 0.9267,1.1222 0.4173,0.3116 0.9369,0.5572 1.5691,0.7289 l 1.6852,0.4571 c 0.4673,0.1251 0.8573,0.2581 1.1723,0.3934 0.3138,0.1365 0.5594,0.282 0.7277,0.431 0.1694,0.1489 0.2945,0.3206 0.3809,0.5162 0.083,0.1956 0.1228,0.4105 0.1228,0.6459 -0.003,0.4002 -0.083,0.7379 -0.2422,1.0131 -0.1557,0.274 -0.3775,0.4935 -0.6549,0.6618 -0.2786,0.166 -0.6027,0.2842 -0.9699,0.3604 -0.3673,0.0728 -0.7653,0.1103 -1.186,0.1103 -0.5662,0 -1.1018,-0.0796 -1.6089,-0.2354 -0.5026,-0.1557 -0.9666,-0.3843 -1.3873,-0.6856 -0.4173,-0.3013 -0.7845,-0.6686 -1.095,-1.1052 z m 27.1487,-3.675 c 0,-0.6652 -0.0955,-1.2576 -0.2911,-1.7807 -0.1921,-0.523 -0.4798,-0.9733 -0.8642,-1.3508 -0.3809,-0.3775 -0.8312,-0.6629 -1.344,-0.8506 -0.5128,-0.1887 -1.0893,-0.2854 -1.7283,-0.2854 -0.8608,0 -1.6419,0.1422 -2.3469,0.4276 -0.7084,0.2877 -1.3349,0.7118 -1.8842,1.2815 -0.374,0.39 -0.6856,0.8209 -0.9369,1.2973 -0.2479,0.4731 -0.4366,0.9768 -0.5594,1.5101 -0.1262,0.5298 -0.1888,1.0756 -0.1888,1.6317 0,0.6561 0.0989,1.2416 0.2979,1.7579 0.199,0.5162 0.4969,0.9631 0.8938,1.3349 0.3968,0.3741 0.8675,0.6549 1.4099,0.8437 0.5435,0.1853 1.1564,0.282 1.8375,0.282 0.7914,0 1.5135,-0.133 2.1696,-0.3946 0.6515,-0.2615 1.2382,-0.6526 1.751,-1.1757 0.3969,-0.4002 0.7278,-0.8437 0.9927,-1.327 0.2649,-0.4832 0.4605,-0.9972 0.5936,-1.5395 0.1319,-0.5402 0.1978,-1.0928 0.1978,-1.6624 z m -2.1058,0.1955 c 0,0.5799 -0.0762,1.1121 -0.2309,1.5988 -0.1557,0.4832 -0.3877,0.9176 -0.6993,1.2985 -0.324,0.3809 -0.6879,0.6618 -1.0927,0.8505 -0.4037,0.1888 -0.8471,0.2843 -1.3304,0.2843 -0.523,0 -0.9733,-0.0955 -1.3474,-0.2911 -0.3775,-0.1956 -0.6652,-0.4867 -0.8676,-0.871 -0.2024,-0.3832 -0.3047,-0.863 -0.3081,-1.4361 0,-0.3809 0.0398,-0.7516 0.1194,-1.1155 0.0762,-0.365 0.1921,-0.7095 0.3445,-1.0268 0.1524,-0.3206 0.3411,-0.606 0.5629,-0.8539 0.3274,-0.3445 0.6947,-0.6026 1.1052,-0.7755 0.4105,-0.1751 0.8642,-0.2615 1.3611,-0.2615 0.4798,0 0.8971,0.1001 1.2553,0.2956 0.357,0.1979 0.6322,0.489 0.83,0.8733 0.1956,0.3877 0.2945,0.8642 0.298,1.4304 z m 12.3963,-8.0652 h -2.0456 l -2.9211,13.7267 h 2.066 z m 15.0184,3.8535 h -2.0661 l -1.1154,5.3443 c -0.0592,0.2842 -0.1262,0.5366 -0.199,0.7584 -0.0694,0.2183 -0.1547,0.423 -0.2581,0.6049 -0.1024,0.1853 -0.2286,0.3684 -0.3775,0.5469 -0.1581,0.1956 -0.3503,0.3673 -0.5754,0.5197 -0.2251,0.1489 -0.4798,0.2683 -0.7584,0.3547 -0.282,0.0853 -0.5833,0.1319 -0.9074,0.1319 -0.5697,0 -1.0063,-0.1353 -1.3145,-0.407 -0.3047,-0.2718 -0.4571,-0.672 -0.4605,-1.2019 0,-0.1558 0.0137,-0.3514 0.0467,-0.5833 0.0295,-0.2343 0.0761,-0.5094 0.1398,-0.8244 l 1.095,-5.2476 h -2.0297 l -1.1916,5.6456 c -0.083,0.3638 -0.1421,0.7049 -0.1819,1.0267 -0.0398,0.3207 -0.0592,0.6186 -0.0592,0.8938 0,0.4139 0.0694,0.7777 0.2047,1.0893 0.1365,0.3138 0.3445,0.5788 0.6197,0.7937 0.2706,0.216 0.5788,0.3809 0.9233,0.4866 0.348,0.1092 0.7289,0.1626 1.1519,0.1626 0.8186,-0.003 1.5236,-0.1626 2.1195,-0.473 0.5958,-0.315 1.062,-0.7618 1.3997,-1.3417 l -0.3377,1.593 h 2.066 z m 10.2075,8.0891 c -0.1558,0.0626 -0.3207,0.1092 -0.5026,0.1422 -0.1797,0.0329 -0.3741,0.0489 -0.5833,0.0489 -0.298,-0.002 -0.5299,-0.0887 -0.6914,-0.2547 -0.1626,-0.1649 -0.2456,-0.3832 -0.249,-0.655 0,-0.1399 0.0136,-0.3081 0.0364,-0.4969 0.0239,-0.1922 0.0602,-0.4105 0.1091,-0.6584 l 0.9711,-4.5664 h 2.1616 l 0.3411,-1.6488 h -2.165 l 0.5924,-2.8233 h -1.9796 l -0.639,2.8233 h -1.4237 l -0.3809,1.6488 h 1.4464 l -0.9893,4.6062 c -0.1762,0.9006 -0.2615,1.5123 -0.2615,1.8341 0.002,0.4401 0.0955,0.8108 0.2843,1.1155 0.1853,0.3047 0.4571,0.5367 0.8073,0.6913 0.3548,0.1592 0.7789,0.2388 1.2746,0.2388 0.4105,0 0.7983,-0.0295 1.1621,-0.0898 0.365,-0.0591 0.7061,-0.149 1.02,-0.2706 z m 10.1551,-8.0925 h -2.0456 l -2.0865,9.8766 h 2.0467 z m 0.8346,-3.8501 h -2.066 l -0.4765,2.182 h 2.0854 z m 14.6603,7.8697 c 0,-0.6652 -0.0956,-1.2576 -0.2911,-1.7807 -0.1922,-0.523 -0.4799,-0.9733 -0.8642,-1.3508 -0.3809,-0.3775 -0.8312,-0.6629 -1.344,-0.8506 -0.5128,-0.1887 -1.0893,-0.2854 -1.7284,-0.2854 -0.8607,0 -1.6419,0.1422 -2.3469,0.4276 -0.7084,0.2877 -1.3349,0.7118 -1.8841,1.2815 -0.3741,0.39 -0.6857,0.8209 -0.9369,1.2973 -0.2479,0.4731 -0.4367,0.9768 -0.5595,1.5101 -0.1262,0.5298 -0.1887,1.0756 -0.1887,1.6317 0,0.6561 0.0989,1.2416 0.2979,1.7579 0.199,0.5162 0.4969,0.9631 0.8937,1.3349 0.3968,0.3741 0.8676,0.6549 1.41,0.8437 0.5435,0.1853 1.1564,0.282 1.8375,0.282 0.7914,0 1.5134,-0.133 2.1695,-0.3946 0.6515,-0.2615 1.2383,-0.6526 1.7511,-1.1757 0.3968,-0.4002 0.7277,-0.8437 0.9927,-1.327 0.2649,-0.4832 0.4605,-0.9972 0.5935,-1.5395 0.1319,-0.5402 0.1979,-1.0928 0.1979,-1.6624 z m -2.1059,0.1955 c 0,0.5799 -0.0762,1.1121 -0.2308,1.5988 -0.1558,0.4832 -0.3878,0.9176 -0.6993,1.2985 -0.3241,0.3809 -0.6879,0.6618 -1.0927,0.8505 -0.4037,0.1888 -0.8472,0.2843 -1.3304,0.2843 -0.5231,0 -0.9733,-0.0955 -1.3474,-0.2911 -0.3775,-0.1956 -0.6652,-0.4867 -0.8676,-0.871 -0.2024,-0.3832 -0.3048,-0.863 -0.3082,-1.4361 0,-0.3809 0.0398,-0.7516 0.1194,-1.1155 0.0762,-0.365 0.1922,-0.7095 0.3446,-1.0268 0.1523,-0.3206 0.3411,-0.606 0.5628,-0.8539 0.3275,-0.3445 0.6948,-0.6026 1.1052,-0.7755 0.4105,-0.1751 0.8642,-0.2615 1.3611,-0.2615 0.4799,0 0.8972,0.1001 1.2553,0.2956 0.3571,0.1979 0.6322,0.489 0.8301,0.8733 0.1956,0.3877 0.2945,0.8642 0.2979,1.4304 z m 10.6521,0.2979 c 0.042,-0.2183 0.0921,-0.4173 0.1455,-0.5958 0.0489,-0.1785 0.1058,-0.3377 0.1649,-0.4798 0.0568,-0.1387 0.1296,-0.2786 0.2126,-0.4173 0.0819,-0.1353 0.1819,-0.2752 0.2911,-0.4173 0.2877,-0.3343 0.6186,-0.5856 0.9961,-0.755 0.3775,-0.1683 0.7982,-0.2513 1.2644,-0.2513 0.5629,0 0.9972,0.1353 1.2951,0.4104 0.2979,0.2752 0.4469,0.6789 0.4503,1.2178 0,0.2195 -0.0136,0.4446 -0.0364,0.6755 -0.0261,0.2319 -0.0659,0.4673 -0.1194,0.7118 l -1.1154,5.2646 h 2.0455 l 1.1951,-5.6444 c 0.083,-0.3616 0.1433,-0.7061 0.1819,-1.0336 0.0398,-0.3241 0.0603,-0.6322 0.0603,-0.9233 0,-0.4139 -0.0694,-0.7755 -0.2058,-1.0859 -0.1353,-0.3116 -0.3377,-0.5731 -0.6083,-0.788 -0.2752,-0.2092 -0.5868,-0.3639 -0.9336,-0.4707 -0.3479,-0.1058 -0.7322,-0.1581 -1.153,-0.1581 -0.8005,0 -1.4963,0.1524 -2.0922,0.4594 -0.5958,0.3047 -1.0825,0.7686 -1.4668,1.3838 l 0.3582,-1.6124 h -2.0263 l -2.0865,9.8732 h 2.0467 z m 12.0086,3.7512 c 0.208,0.2718 0.4639,0.5197 0.7652,0.7414 0.3013,0.2217 0.6481,0.4173 1.0393,0.5901 0.3934,0.1717 0.8073,0.3036 1.2485,0.3901 0.4366,0.0898 0.8971,0.133 1.3804,0.133 0.5958,0 1.1518,-0.0569 1.6715,-0.1797 0.523,-0.1182 0.9835,-0.307 1.3804,-0.5662 0.4014,-0.2581 0.7118,-0.5958 0.9369,-1.0154 0.2286,-0.4173 0.3446,-0.9245 0.348,-1.5169 0,-0.4503 -0.0865,-0.8437 -0.2616,-1.1757 -0.1751,-0.3309 -0.4468,-0.6152 -0.8107,-0.8471 -0.3616,-0.2354 -0.8278,-0.431 -1.3906,-0.5856 l -1.1553,-0.332 c -0.3218,-0.0921 -0.5867,-0.1854 -0.8016,-0.2809 -0.2115,-0.0932 -0.3707,-0.1887 -0.4799,-0.282 -0.1091,-0.0887 -0.1921,-0.191 -0.249,-0.307 -0.0523,-0.1126 -0.0796,-0.2388 -0.0796,-0.3809 0.003,-0.2945 0.083,-0.5367 0.2388,-0.7255 0.1558,-0.1921 0.3707,-0.3308 0.6493,-0.4207 0.274,-0.0887 0.5924,-0.1319 0.9528,-0.1319 0.2582,0 0.5174,0.0262 0.7721,0.0796 0.2581,0.0489 0.5162,0.1285 0.7709,0.232 0.2582,0.0989 0.4935,0.2217 0.705,0.3604 0.2092,0.1422 0.398,0.3014 0.5572,0.4799 l 1.2314,-1.4236 c -0.4309,-0.4503 -0.9574,-0.788 -1.5794,-1.0132 -0.6231,-0.2217 -1.3406,-0.3343 -2.1558,-0.3343 -0.5561,0 -1.0859,0.0603 -1.5953,0.1786 -0.5072,0.1193 -0.9631,0.3081 -1.3645,0.5628 -0.4003,0.2581 -0.7187,0.5901 -0.9495,0.9972 -0.2319,0.4071 -0.3513,0.8972 -0.3582,1.4702 0,0.6379 0.182,1.1587 0.5527,1.559 0.3718,0.4002 0.9346,0.7152 1.6885,0.9437 l 1.1166,0.3571 c 0.3741,0.1125 0.6811,0.2183 0.9301,0.3218 0.2479,0.1023 0.4367,0.1978 0.5629,0.2911 0.1251,0.0921 0.2217,0.1989 0.2842,0.324 0.0637,0.1228 0.0933,0.2615 0.0933,0.4105 0,0.2183 -0.0466,0.4071 -0.1365,0.5628 -0.0921,0.1592 -0.2285,0.2889 -0.407,0.3878 -0.182,0.1023 -0.3901,0.1785 -0.6186,0.2285 -0.2251,0.0489 -0.4776,0.0728 -0.7482,0.0728 -0.4275,0 -0.8448,-0.0534 -1.2451,-0.1626 -0.4036,-0.1091 -0.7811,-0.2717 -1.1359,-0.4935 -0.3536,-0.2183 -0.672,-0.4923 -0.9563,-0.8278 z m 22.3684,-6.612 h 2.165 l 0.3581,-1.6488 h -2.1615 l 0.1148,-0.6322 c 0.05,-0.2513 0.116,-0.4798 0.2058,-0.6822 0.0898,-0.2013 0.199,-0.3798 0.3275,-0.5288 0.133,-0.1626 0.3047,-0.282 0.5139,-0.3615 0.2115,-0.0762 0.4594,-0.116 0.7482,-0.116 0.3775,0 0.7278,0.0568 1.0461,0.1762 l 0.5925,-1.6294 c -0.2184,-0.1023 -0.4674,-0.1785 -0.7482,-0.2286 -0.2786,-0.0488 -0.5868,-0.0727 -0.9211,-0.0727 -0.4537,0 -0.8732,0.0534 -1.2507,0.1592 -0.381,0.1057 -0.7221,0.2683 -1.0268,0.4798 -0.3741,0.2718 -0.6857,0.622 -0.9335,1.0495 -0.2479,0.4276 -0.4333,0.9301 -0.5595,1.5135 l -0.1751,0.8732 h -1.4566 l -0.3479,1.6488 h 1.4429 l -1.7249,8.2244 h 2.0467 z m 16.6705,2.3674 c 0,-0.6652 -0.0955,-1.2576 -0.291,-1.7807 -0.1922,-0.523 -0.4799,-0.9733 -0.8642,-1.3508 -0.3809,-0.3775 -0.8312,-0.6629 -1.344,-0.8506 -0.5129,-0.1887 -1.0893,-0.2854 -1.7284,-0.2854 -0.8607,0 -1.6419,0.1422 -2.3469,0.4276 -0.7084,0.2877 -1.3349,0.7118 -1.8841,1.2815 -0.3741,0.39 -0.6857,0.8209 -0.937,1.2973 -0.2478,0.4731 -0.4366,0.9768 -0.5594,1.5101 -0.1262,0.5298 -0.1888,1.0756 -0.1888,1.6317 0,0.6561 0.099,1.2416 0.298,1.7579 0.1989,0.5162 0.4969,0.9631 0.8937,1.3349 0.3968,0.3741 0.8676,0.6549 1.41,0.8437 0.5435,0.1853 1.1564,0.282 1.8375,0.282 0.7914,0 1.5134,-0.133 2.1695,-0.3946 0.6515,-0.2615 1.2383,-0.6526 1.7511,-1.1757 0.3968,-0.4002 0.7277,-0.8437 0.9926,-1.327 0.265,-0.4832 0.4606,-0.9972 0.5936,-1.5395 0.1319,-0.5402 0.1978,-1.0928 0.1978,-1.6624 z m -2.1058,0.1955 c 0,0.5799 -0.0762,1.1121 -0.2308,1.5988 -0.1558,0.4832 -0.3878,0.9176 -0.6993,1.2985 -0.3241,0.3809 -0.688,0.6618 -1.0928,0.8505 -0.4036,0.1888 -0.8471,0.2843 -1.3303,0.2843 -0.5231,0 -0.9734,-0.0955 -1.3475,-0.2911 -0.3775,-0.1956 -0.6651,-0.4867 -0.8675,-0.871 -0.2024,-0.3832 -0.3048,-0.863 -0.3082,-1.4361 0,-0.3809 0.0398,-0.7516 0.1194,-1.1155 0.0762,-0.365 0.1922,-0.7095 0.3445,-1.0268 0.1524,-0.3206 0.3412,-0.606 0.5629,-0.8539 0.3275,-0.3445 0.6947,-0.6026 1.1052,-0.7755 0.4105,-0.1751 0.8642,-0.2615 1.3611,-0.2615 0.4798,0 0.8971,0.1001 1.2553,0.2956 0.3571,0.1979 0.6322,0.489 0.8301,0.8733 0.1956,0.3877 0.2945,0.8642 0.2979,1.4304 z m 10.5452,0.7516 c 0.0796,-0.3934 0.166,-0.7379 0.2581,-1.0267 0.0932,-0.2911 0.199,-0.539 0.3115,-0.7482 0.116,-0.2081 0.2456,-0.39 0.3912,-0.5424 0.3172,-0.3582 0.6584,-0.6288 1.0165,-0.8085 0.3571,-0.1785 0.7312,-0.2672 1.1257,-0.2672 0.1888,0 0.3707,0.0125 0.5492,0.0421 0.1751,0.0307 0.348,0.0728 0.5163,0.133 l 0.6231,-1.8443 c -0.199,-0.0659 -0.3912,-0.116 -0.5765,-0.1524 -0.1854,-0.0329 -0.3639,-0.05 -0.5401,-0.05 -0.4799,0.003 -0.9131,0.0932 -1.3077,0.2649 -0.39,0.1763 -0.7311,0.4173 -1.0233,0.7255 -0.2911,0.3115 -0.5253,0.6686 -0.705,1.0722 l 0.3775,-1.7613 h -2.0456 l -2.0865,9.8732 h 2.0661 z m 17.6746,-8.8168 h -2.1627 l -2.92,13.7267 h 2.1627 z m 7.5956,8.3631 c 0.0421,-0.2183 0.0921,-0.4173 0.1455,-0.5958 0.0489,-0.1785 0.1058,-0.3377 0.1649,-0.4798 0.0569,-0.1387 0.1296,-0.2786 0.2126,-0.4173 0.0819,-0.1353 0.182,-0.2752 0.2911,-0.4173 0.2877,-0.3343 0.6186,-0.5856 0.9961,-0.755 0.3775,-0.1683 0.7982,-0.2513 1.2644,-0.2513 0.5629,0 0.9972,0.1353 1.2951,0.4104 0.298,0.2752 0.4469,0.6789 0.4503,1.2178 0,0.2195 -0.0136,0.4446 -0.0364,0.6755 -0.0261,0.2319 -0.0659,0.4673 -0.1194,0.7118 l -1.1154,5.2646 h 2.0456 l 1.195,-5.6444 c 0.083,-0.3616 0.1433,-0.7061 0.182,-1.0336 0.0398,-0.3241 0.0602,-0.6322 0.0602,-0.9233 0,-0.4139 -0.0693,-0.7755 -0.2058,-1.0859 -0.1353,-0.3116 -0.3377,-0.5731 -0.6083,-0.788 -0.2752,-0.2092 -0.5867,-0.3639 -0.9336,-0.4707 -0.3479,-0.1058 -0.7322,-0.1581 -1.1529,-0.1581 -0.8005,0 -1.4964,0.1524 -2.0922,0.4594 -0.5959,0.3047 -1.0825,0.7686 -1.4669,1.3838 l 0.3582,-1.6124 h -2.0262 l -2.0866,9.8732 h 2.0468 z m 24.6653,-8.3597 h -2.0661 l -1.1723,5.3238 c -0.0887,-0.3639 -0.2615,-0.6754 -0.5162,-0.9336 -0.2581,-0.2547 -0.5799,-0.4537 -0.9665,-0.5856 -0.3912,-0.1364 -0.8312,-0.2058 -1.3213,-0.2058 -0.6686,0 -1.2974,0.1058 -1.8841,0.3184 -0.5822,0.2115 -1.1257,0.5299 -1.6249,0.9529 -0.5037,0.4378 -0.9176,0.9369 -1.2451,1.493 -0.324,0.5594 -0.5662,1.162 -0.722,1.8113 -0.1592,0.6493 -0.2354,1.3281 -0.2354,2.0365 0,0.5822 0.0796,1.1018 0.2422,1.5589 0.1592,0.4571 0.3968,0.8505 0.7186,1.1848 0.3207,0.3355 0.6914,0.5868 1.1189,0.7551 0.4241,0.1694 0.9006,0.2558 1.4304,0.2558 0.8039,0 1.5123,-0.1626 2.1252,-0.4844 0.6129,-0.3207 1.1291,-0.8005 1.5533,-1.4463 l -0.3616,1.6885 h 2.0103 z m -3.8103,7.6252 c 0,0.3445 -0.0467,0.7084 -0.1365,1.095 -0.0921,0.3843 -0.2285,0.788 -0.407,1.2121 -0.1922,0.4571 -0.4367,0.8483 -0.7312,1.1757 -0.299,0.3275 -0.639,0.5788 -1.0268,0.7585 -0.3877,0.1751 -0.8141,0.2638 -1.278,0.2638 -0.4639,0 -0.8608,-0.0955 -1.1883,-0.2877 -0.3286,-0.1888 -0.5765,-0.4605 -0.7516,-0.8142 -0.1728,-0.3513 -0.2615,-0.772 -0.2615,-1.261 0,-0.4537 0.0489,-0.888 0.1456,-1.3053 0.0955,-0.4196 0.2376,-0.8108 0.4298,-1.1746 0.1921,-0.3616 0.4309,-0.6891 0.7152,-0.9733 0.3184,-0.3116 0.6754,-0.5436 1.0666,-0.6993 0.3934,-0.1558 0.8175,-0.2309 1.2814,-0.2309 0.6811,0 1.2076,0.1877 1.5794,0.5652 0.3707,0.3775 0.5595,0.9369 0.5629,1.676 z m 18.7718,-3.7751 h -2.066 l -1.1155,5.3443 c -0.0591,0.2842 -0.1262,0.5366 -0.199,0.7584 -0.0693,0.2183 -0.1546,0.423 -0.2581,0.6049 -0.1023,0.1853 -0.2285,0.3684 -0.3775,0.5469 -0.158,0.1956 -0.3502,0.3673 -0.5753,0.5197 -0.2252,0.1489 -0.4799,0.2683 -0.7585,0.3547 -0.282,0.0853 -0.5833,0.1319 -0.9073,0.1319 -0.5697,0 -1.0064,-0.1353 -1.3145,-0.407 -0.3047,-0.2718 -0.4571,-0.672 -0.4605,-1.2019 0,-0.1558 0.0136,-0.3514 0.0466,-0.5833 0.0296,-0.2343 0.0762,-0.5094 0.1399,-0.8244 l 1.095,-5.2476 h -2.0297 l -1.1917,5.6456 c -0.083,0.3638 -0.1421,0.7049 -0.1819,1.0267 -0.0398,0.3207 -0.0591,0.6186 -0.0591,0.8938 0,0.4139 0.0693,0.7777 0.2047,1.0893 0.1364,0.3138 0.3445,0.5788 0.6197,0.7937 0.2706,0.216 0.5787,0.3809 0.9233,0.4866 0.3479,0.1092 0.7288,0.1626 1.1518,0.1626 0.8187,-0.003 1.5237,-0.1626 2.1195,-0.473 0.5958,-0.315 1.062,-0.7618 1.3997,-1.3417 l -0.3377,1.593 h 2.0661 z m 4.4835,8.2608 c 0.2081,0.2718 0.4639,0.5197 0.7653,0.7414 0.3013,0.2217 0.6481,0.4173 1.0392,0.5901 0.3935,0.1717 0.8074,0.3036 1.2485,0.3901 0.4367,0.0898 0.8972,0.133 1.3804,0.133 0.5959,0 1.1519,-0.0569 1.6715,-0.1797 0.5231,-0.1182 0.9836,-0.307 1.3804,-0.5662 0.4014,-0.2581 0.7118,-0.5958 0.937,-1.0154 0.2285,-0.4173 0.3445,-0.9245 0.3479,-1.5169 0,-0.4503 -0.0864,-0.8437 -0.2615,-1.1757 -0.1751,-0.3309 -0.4469,-0.6152 -0.8107,-0.8471 -0.3616,-0.2354 -0.8278,-0.431 -1.3907,-0.5856 l -1.1552,-0.332 c -0.3218,-0.0921 -0.5868,-0.1854 -0.8017,-0.2809 -0.2115,-0.0932 -0.3707,-0.1887 -0.4798,-0.282 -0.1092,-0.0887 -0.1922,-0.191 -0.249,-0.307 -0.0523,-0.1126 -0.0796,-0.2388 -0.0796,-0.3809 0.003,-0.2945 0.083,-0.5367 0.2388,-0.7255 0.1557,-0.1921 0.3706,-0.3308 0.6492,-0.4207 0.2741,-0.0887 0.5924,-0.1319 0.9529,-0.1319 0.2581,0 0.5174,0.0262 0.7721,0.0796 0.2581,0.0489 0.5162,0.1285 0.7709,0.232 0.2581,0.0989 0.4935,0.2217 0.705,0.3604 0.2092,0.1422 0.3979,0.3014 0.5571,0.4799 l 1.2315,-1.4236 c -0.431,-0.4503 -0.9574,-0.788 -1.5794,-1.0132 -0.6231,-0.2217 -1.3406,-0.3343 -2.1559,-0.3343 -0.556,0 -1.0859,0.0603 -1.5953,0.1786 -0.5071,0.1193 -0.9631,0.3081 -1.3645,0.5628 -0.4002,0.2581 -0.7186,0.5901 -0.9494,0.9972 -0.232,0.4071 -0.3514,0.8972 -0.3582,1.4702 0,0.6379 0.1819,1.1587 0.5526,1.559 0.3718,0.4002 0.9347,0.7152 1.6886,0.9437 l 1.1166,0.3571 c 0.3741,0.1125 0.6811,0.2183 0.9301,0.3218 0.2479,0.1023 0.4366,0.1978 0.5628,0.2911 0.1251,0.0921 0.2218,0.1989 0.2843,0.324 0.0637,0.1228 0.0932,0.2615 0.0932,0.4105 0,0.2183 -0.0466,0.4071 -0.1364,0.5628 -0.0921,0.1592 -0.2286,0.2889 -0.4071,0.3878 -0.1819,0.1023 -0.39,0.1785 -0.6185,0.2285 -0.2252,0.0489 -0.4776,0.0728 -0.7482,0.0728 -0.4276,0 -0.8449,-0.0534 -1.2451,-0.1626 -0.4037,-0.1091 -0.7812,-0.2717 -1.136,-0.4935 -0.3536,-0.2183 -0.672,-0.4923 -0.9562,-0.8278 z m 19.2961,-0.1717 c -0.1558,0.0626 -0.3207,0.1092 -0.5026,0.1422 -0.1797,0.0329 -0.3741,0.0489 -0.5833,0.0489 -0.2979,-0.002 -0.5299,-0.0887 -0.6914,-0.2547 -0.1626,-0.1649 -0.2456,-0.3832 -0.249,-0.655 0,-0.1399 0.0137,-0.3081 0.0364,-0.4969 0.0239,-0.1922 0.0603,-0.4105 0.1092,-0.6584 l 0.971,-4.5664 h 2.1616 l 0.3411,-1.6488 h -2.165 l 0.5924,-2.8233 h -1.9796 l -0.639,2.8233 H 488.09 l -0.381,1.6488 h 1.4464 l -0.9893,4.6062 c -0.1762,0.9006 -0.2615,1.5123 -0.2615,1.8341 0.002,0.4401 0.0955,0.8108 0.2843,1.1155 0.1853,0.3047 0.4571,0.5367 0.8073,0.6913 0.3548,0.1592 0.7789,0.2388 1.2746,0.2388 0.4105,0 0.7983,-0.0295 1.1621,-0.0898 0.365,-0.0591 0.7062,-0.149 1.02,-0.2706 z m 9.0226,-3.1258 c 0.0796,-0.3934 0.166,-0.7379 0.2581,-1.0267 0.0933,-0.2911 0.199,-0.539 0.3116,-0.7482 0.116,-0.2081 0.2456,-0.39 0.3911,-0.5424 0.3173,-0.3582 0.6584,-0.6288 1.0166,-0.8085 0.357,-0.1785 0.7311,-0.2672 1.1257,-0.2672 0.1887,0 0.3707,0.0125 0.5492,0.0421 0.1751,0.0307 0.3479,0.0728 0.5162,0.133 l 0.6231,-1.8443 c -0.199,-0.0659 -0.3911,-0.116 -0.5765,-0.1524 -0.1853,-0.0329 -0.3638,-0.05 -0.5401,-0.05 -0.4798,0.003 -0.9131,0.0932 -1.3076,0.2649 -0.39,0.1763 -0.7312,0.4173 -1.0234,0.7255 -0.2911,0.3115 -0.5253,0.6686 -0.705,1.0722 l 0.3775,-1.7613 h -2.0455 l -2.0866,9.8732 h 2.0661 z m 7.5388,8.287 c 0.0727,0.033 0.166,0.0659 0.2786,0.0989 0.1159,0.033 0.2512,0.066 0.4104,0.0933 0.1592,0.0295 0.3116,0.0523 0.4571,0.0659 0.1422,0.0171 0.2741,0.0227 0.3969,0.0227 0.3945,0 0.755,-0.0261 1.0825,-0.0784 0.3286,-0.0535 0.6231,-0.1365 0.8846,-0.2422 0.2581,-0.1126 0.5162,-0.282 0.7778,-0.5094 0.2581,-0.2286 0.5162,-0.514 0.7743,-0.8585 0.1035,-0.1319 0.2058,-0.274 0.3082,-0.4264 0.1057,-0.1524 0.2114,-0.315 0.324,-0.4833 0.1069,-0.1762 0.2161,-0.3581 0.3286,-0.5503 0.1126,-0.1887 0.2286,-0.3866 0.3502,-0.5958 0.1194,-0.2047 0.2195,-0.3707 0.2923,-0.4958 0.0762,-0.1262 0.1285,-0.2194 0.1614,-0.2717 l 5.4034,-9.0193 h -2.298 c -1.1223,1.8944 -2.0286,3.4499 -2.7313,4.6654 -0.6981,1.2155 -1.1882,2.0888 -1.4702,2.6289 -0.0728,-0.5003 -0.2217,-1.3576 -0.4469,-2.5754 -0.2251,-1.2156 -0.5264,-2.7881 -0.9005,-4.7189 h -2.1809 l 2.0262,9.4366 -0.3013,0.4957 c -0.1728,0.2854 -0.3343,0.5333 -0.4832,0.7391 -0.1501,0.2081 -0.2854,0.3707 -0.4083,0.4935 -0.1682,0.1683 -0.374,0.2979 -0.6083,0.3832 -0.2388,0.0864 -0.5071,0.1296 -0.8084,0.1296 -0.1786,0 -0.3605,-0.017 -0.5458,-0.05 -0.182,-0.033 -0.3707,-0.0796 -0.5595,-0.1421 z"
         style="fill:#ffffff;fill-rule:evenodd"
         id="path10" />
    </g>
  </g>
</svg>
